<svg width="16" height="16" viewBox="0 0 16 16" fill="none" xmlns="http://www.w3.org/2000/svg">
<path d="M15.8779 8.375C15.8779 8.93437 15.7445 9.45312 15.4778 9.92813C15.2111 10.4031 14.8545 10.775 14.4048 11.0344C14.4172 11.1188 14.4234 11.25 14.4234 11.4281C14.4234 12.275 14.1412 12.9937 13.583 13.5875C13.0217 14.1844 12.3457 14.4812 11.5549 14.4812C11.2013 14.4812 10.8633 14.4156 10.5439 14.2844C10.2958 14.7969 9.93917 15.2094 9.4709 15.525C9.00572 15.8438 8.49404 16 7.93893 16C7.37142 16 6.85663 15.8469 6.39766 15.5344C5.93559 15.225 5.58206 14.8094 5.33397 14.2844C5.01455 14.4156 4.67963 14.4812 4.323 14.4812C3.5322 14.4812 2.85305 14.1844 2.28554 13.5875C1.71803 12.9937 1.43583 12.2719 1.43583 11.4281C1.43583 11.3344 1.44823 11.2031 1.46994 11.0344C1.02028 10.7719 0.663645 10.4031 0.396947 9.92813C0.133349 9.45312 0 8.93437 0 8.375C0 7.78125 0.148855 7.23438 0.443464 6.74062C0.738073 6.24687 1.13502 5.88125 1.6312 5.64375C1.50095 5.2875 1.43583 4.92812 1.43583 4.57188C1.43583 3.72813 1.71803 3.00625 2.28554 2.4125C2.85305 1.81875 3.5322 1.51875 4.323 1.51875C4.67653 1.51875 5.01455 1.58438 5.33397 1.71563C5.58206 1.20312 5.93869 0.790625 6.40697 0.475C6.87214 0.159375 7.38383 0 7.93893 0C8.49404 0 9.00572 0.159375 9.4709 0.471875C9.93607 0.7875 10.2958 1.2 10.5439 1.7125C10.8633 1.58125 11.1982 1.51562 11.5549 1.51562C12.3457 1.51562 13.0217 1.8125 13.583 2.40937C14.1443 3.00625 14.4234 3.725 14.4234 4.56875C14.4234 4.9625 14.3645 5.31875 14.2467 5.64062C14.7428 5.87813 15.1398 6.24375 15.4344 6.7375C15.729 7.23438 15.8779 7.78125 15.8779 8.375ZM7.60091 10.7844L10.8788 5.8375C10.9625 5.70625 10.9874 5.5625 10.9594 5.40938C10.9284 5.25625 10.8509 5.13438 10.7207 5.05312C10.5904 4.96875 10.4478 4.94063 10.2958 4.9625C10.1407 4.9875 10.0167 5.0625 9.92366 5.19375L7.0365 9.56875L5.70611 8.23125C5.58826 8.1125 5.45181 8.05625 5.29986 8.0625C5.1448 8.06875 5.01145 8.125 4.89361 8.23125C4.78817 8.3375 4.73545 8.47187 4.73545 8.63437C4.73545 8.79375 4.78817 8.92813 4.89361 9.0375L6.72018 10.8781L6.81011 10.95C6.91555 11.0219 7.02409 11.0562 7.12953 11.0562C7.33731 11.0531 7.49547 10.9656 7.60091 10.7844Z" fill="#3897F0"/>
</svg>
